<svg width="27" height="31" viewBox="0 0 27 31" fill="none" xmlns="http://www.w3.org/2000/svg">
<path d="M13.5 15.5C17.7609 15.5 21.2143 12.0307 21.2143 7.75C21.2143 3.46934 17.7609 0 13.5 0C9.23906 0 5.78571 3.46934 5.78571 7.75C5.78571 12.0307 9.23906 15.5 13.5 15.5ZM18.9 17.4375H17.8935C16.5556 18.0551 15.067 18.4062 13.5 18.4062C11.933 18.4062 10.4504 18.0551 9.10647 17.4375H8.1C3.62812 17.4375 0 21.0824 0 25.575V28.0938C0 29.6982 1.29576 31 2.89286 31H24.1071C25.7042 31 27 29.6982 27 28.0938V25.575C27 21.0824 23.3719 17.4375 18.9 17.4375Z" fill="#D9D9D9"/>
</svg>
